<svg id="Слой_1" data-name="Слой 1" xmlns="http://www.w3.org/2000/svg" width="428.78" height="140.43" viewBox="0 0 428.78 140.43"><title>black substrate</title><path d="M3225.69,1442.74c-2.12-2.95-5-4.77-8.26-4.77h-35.56s0,0,0,0c3.69-2.55,6.22-7.87,6.22-14a19.12,19.12,0,0,0-3.29-11.07c-2-2.83-4.84-4.58-7.93-4.58h21c5.75,0,10.41-6.5,10.41-14.52a17.74,17.74,0,0,0-3.05-10.26,9.2,9.2,0,0,0-7.36-4.26H3142s0,0,0,0a15.38,15.38,0,0,0-1.58-2.76c-2-2.83-4.83-4.58-7.93-4.58H2937.07a3.84,3.84,0,0,0-3.57,3.83V1376a3.83,3.83,0,0,0,3.7,3.83h99.62a3.62,3.62,0,0,1,3.63,2.88,3.5,3.5,0,0,1-3.45,4.12H2926.78a3.78,3.78,0,0,0,1.14-2.72v-0.24a3.83,3.83,0,0,0-3.74-3.84s0,0,0,0h-32.77a6.31,6.31,0,0,0-6-8.1h-31.74a6.3,6.3,0,0,0-6.3,6.3,5.19,5.19,0,0,0,.1,1.05H2831c-5.75,0-10.41,6.5-10.41,14.52a17.72,17.72,0,0,0,3,10.27,9.2,9.2,0,0,0,7.36,4.25h-19.44c-6.19,0-11.22,7-11.22,15.65a19.11,19.11,0,0,0,3.29,11.06c2,2.83,4.84,4.58,7.93,4.58h36.36s0,0,0,0c-3.89,2.65-6.56,8.21-6.56,14.65a19.87,19.87,0,0,0,3.42,11.52,13,13,0,0,0,1.58,1.85,0,0,0,0,1,0,0h-21.93c-5.75,0-10.41,6.5-10.41,14.52a17.66,17.66,0,0,0,3.05,10.26c1.88,2.63,4.48,4.26,7.36,4.26h71.3l0.22,0.31c2,2.84,4.84,4.59,7.93,4.59h93.79s0,0,0,0a17.44,17.44,0,0,0,2.72,6.15c2,2.83,4.84,4.58,7.94,4.58h51.19c6.13,0,11.1-6.83,11.22-15.33v-0.31h120.61c5.75,0,10.41-6.5,10.41-14.52a17.79,17.79,0,0,0-3.05-10.27,14.75,14.75,0,0,0-1.11-1.35h19.84c6.45,0,11.68-7.29,11.68-16.29A20,20,0,0,0,3225.69,1442.74Zm-358.2-3-0.18-.13h0.18v0.13Z" transform="translate(-2800.33 -1371.9)" style="fill:#222"/></svg>