<svg id="Слой_1" data-name="Слой 1" xmlns="http://www.w3.org/2000/svg" width="16.27" height="28" viewBox="0 0 16.27 28"><title>phone_new</title><path d="M1255.38,1236h-12.48a1.9,1.9,0,0,0-1.89,1.89v24.22a1.9,1.9,0,0,0,1.89,1.89h12.48a1.9,1.9,0,0,0,1.89-1.89v-24.22a1.9,1.9,0,0,0-1.89-1.89h0Zm-8.24,1.36h4a0.23,0.23,0,1,1,0,.46h-4a0.23,0.23,0,1,1,0-.46h0Zm2,25.69a0.95,0.95,0,1,1,.95-0.95,0.94,0.94,0,0,1-.95.95h0Zm6.82-2.56h-13.63V1239h13.63v21.5Zm0,0" transform="translate(-1241 -1236)" style="fill:#fff"/></svg>