<svg id="Слой_1" data-name="Слой 1" xmlns="http://www.w3.org/2000/svg" width="170.97" height="164.05" viewBox="0 0 170.97 164.05"><title>sliding_phone</title><line x1="47.55" y1="12.34" x2="49.64" y2="2" style="fill:none;stroke:#fff;stroke-linecap:round;stroke-linejoin:round;stroke-width:4px"/><line x1="61.25" y1="27.66" x2="71.87" y2="21.21" style="fill:none;stroke:#fff;stroke-linecap:round;stroke-linejoin:round;stroke-width:4px"/><line x1="65.42" y1="47.29" x2="81.12" y2="48.91" style="fill:none;stroke:#fff;stroke-linecap:round;stroke-linejoin:round;stroke-width:4px"/><path d="M3055.77,588a1.05,1.05,0,0,1-.75-1.8l8.44-8.44a1.05,1.05,0,0,1,1.49,1.49l-8.44,8.44A1.05,1.05,0,0,1,3055.77,588Z" transform="translate(-2962.09 -486.93)" style="fill:#fff"/><path d="M3064.21,588a1.05,1.05,0,0,1-.75-0.31l-8.44-8.44a1.05,1.05,0,1,1,1.49-1.49l8.44,8.44A1.05,1.05,0,0,1,3064.21,588Z" transform="translate(-2962.09 -486.93)" style="fill:#fff"/><path d="M3123.85,608.17a1.69,1.69,0,0,1-2.14-2.28l5-11.18a1.69,1.69,0,0,1,3.09,1.39l-5,11.18A1.69,1.69,0,0,1,3123.85,608.17Z" transform="translate(-2962.09 -486.93)" style="fill:#fff"/><path d="M3132,605.1a1.69,1.69,0,0,1-1.29,0l-11.18-5a1.69,1.69,0,1,1,1.39-3.09l11.18,5A1.69,1.69,0,0,1,3132,605.1Z" transform="translate(-2962.09 -486.93)" style="fill:#fff"/><path d="M3101.73,621.54a6.76,6.76,0,0,1-2.07,5.92L3080,647a11.09,11.09,0,0,1-3.48,2.51,14.38,14.38,0,0,1-4.21,1.33l-0.89.07q-0.74.07-1.92,0.07a68.25,68.25,0,0,1-9.1-1,69,69,0,0,1-15.38-4.73A129.23,129.23,0,0,1,3024.38,634a153.91,153.91,0,0,1-24.55-20.7,162.14,162.14,0,0,1-17.16-19.52,139,139,0,0,1-10.94-17.23,92.65,92.65,0,0,1-6.21-14.35,76.08,76.08,0,0,1-2.81-11.09,36.56,36.56,0,0,1-.59-7.32q0.15-2.66.15-3a14.37,14.37,0,0,1,1.33-4.21,11.07,11.07,0,0,1,2.51-3.48l19.67-19.67a6.51,6.51,0,0,1,4.73-2.07,5.51,5.51,0,0,1,3.4,1.11,10.29,10.29,0,0,1,2.51,2.74l15.82,30a7.2,7.2,0,0,1,.74,5.18,9.21,9.21,0,0,1-2.51,4.73l-7.25,7.25a2.47,2.47,0,0,0-.52,1,3.66,3.66,0,0,0-.22,1.11,26.67,26.67,0,0,0,2.66,7.1,65.19,65.19,0,0,0,5.47,8.65,96.09,96.09,0,0,0,10.5,11.76A97.89,97.89,0,0,0,3033,602.54a68.29,68.29,0,0,0,8.65,5.55,23.06,23.06,0,0,0,5.32,2.14l1.85,0.37a3.54,3.54,0,0,0,1-.22,2.45,2.45,0,0,0,1-.52l8.43-8.58a9.06,9.06,0,0,1,6.21-2.37,7.73,7.73,0,0,1,4,.89h0.15L3098,616.66a7.44,7.44,0,0,1,3.7,4.88h0Zm0,0" transform="translate(-2962.09 -486.93)" style="fill:#fff"/></svg>